<?xml version="1.0" standalone="no"?>
<!DOCTYPE svg PUBLIC "-//W3C//DTD SVG 20010904//EN"
 "http://www.w3.org/TR/2001/REC-SVG-20010904/DTD/svg10.dtd">
<svg version="1.0" xmlns="http://www.w3.org/2000/svg"
 width="225.000000pt" height="225.000000pt" viewBox="0 0 225.000000 225.000000"
 preserveAspectRatio="xMidYMid meet">

<g transform="translate(0.000000,225.000000) scale(0.100000,-0.100000)"
fill="#000000" stroke="none">
<path d="M733 1793 c-22 -51 -29 -215 -13 -284 32 -136 89 -112 111 46 18 130
-12 266 -59 273 -18 3 -26 -4 -39 -35z"/>
<path d="M1314 1798 c-23 -43 -31 -228 -15 -295 13 -50 35 -83 56 -83 7 0 21
17 31 38 27 53 28 291 1 340 -10 19 -25 32 -37 32 -12 0 -26 -13 -36 -32z"/>
<path d="M534 1132 c-40 -29 -84 -96 -71 -108 4 -4 17 -3 30 3 21 10 25 7 47
-34 46 -86 157 -160 300 -199 101 -28 321 -26 423 4 132 38 224 93 286 172 22
27 41 55 43 61 3 9 10 8 26 -2 15 -10 25 -10 32 -3 14 14 -43 91 -88 117 -28
17 -33 17 -38 3 -3 -8 3 -28 15 -44 l21 -29 -39 -54 c-70 -98 -178 -156 -343
-185 -252 -44 -520 41 -599 190 -23 44 -23 46 -6 75 18 31 22 61 9 61 -5 0
-27 -13 -48 -28z"/>
<path d="M286 711 c-4 -5 -2 -12 3 -15 5 -4 12 -2 15 3 4 5 2 12 -3 15 -5 4
-12 2 -15 -3z"/>
<path d="M1810 711 c0 -6 4 -13 10 -16 6 -3 7 1 4 9 -7 18 -14 21 -14 7z"/>
<path d="M1790 661 c0 -7 -4 -9 -10 -6 -5 3 -18 1 -27 -4 -10 -6 -13 -11 -8
-11 6 0 4 -4 -3 -9 -10 -6 -10 -10 2 -20 11 -10 18 -6 36 19 12 17 19 34 16
37 -3 4 -6 1 -6 -6z m-20 -32 c-7 -11 -14 -19 -16 -16 -7 7 7 37 17 37 6 0 5
-9 -1 -21z"/>
<path d="M334 641 c-3 -3 23 -33 58 -68 48 -48 65 -60 75 -51 10 8 12 7 8 -4
-6 -16 50 -62 65 -53 6 4 9 1 8 -6 -4 -15 135 -87 227 -117 69 -23 210 -49
320 -59 52 -4 78 1 190 37 169 55 334 138 319 161 -3 5 1 7 8 4 7 -3 40 19 73
49 47 42 57 57 48 66 -7 8 -19 10 -30 5 -10 -5 -22 -9 -26 -9 -4 -1 -11 -6
-15 -11 -11 -16 -62 -36 -62 -25 0 6 -7 10 -16 10 -9 0 -12 -5 -8 -12 5 -7 2
-9 -8 -5 -9 3 -19 2 -24 -3 -5 -5 -55 -17 -111 -26 -56 -10 -99 -22 -97 -26 3
-4 -8 -8 -25 -8 -16 0 -31 5 -33 12 -3 9 -15 7 -45 -5 -34 -13 -66 -15 -175
-11 -73 2 -157 4 -186 4 -38 0 -51 3 -46 12 5 7 0 9 -14 6 -12 -4 -49 3 -83
13 -33 10 -78 19 -99 19 -21 0 -41 4 -45 9 -3 6 -14 8 -25 6 -12 -2 -18 0 -15
6 6 8 -19 13 -55 11 -8 0 -30 11 -48 24 -17 14 -36 23 -41 20 -5 -4 -7 2 -4
12 3 14 -2 18 -27 17 -17 0 -34 -2 -36 -4z m39 -14 c-3 -4 3 -18 13 -30 10
-12 4 -9 -14 7 -17 17 -32 30 -32 31 0 0 9 1 19 1 11 0 17 -4 14 -9z m1318
-70 c-10 -9 -11 -8 -5 6 3 10 9 15 12 12 3 -3 0 -11 -7 -18z m-1231 -24 c0 -7
-39 17 -46 28 -3 6 5 3 20 -6 14 -10 26 -19 26 -22z"/>
</g>
</svg>
